# xmcd
#
# Track frame offsets:
#	150
#	20591
#	38774
#	56707
#	79109
#	96568
#	115740
#	132903
#	150248
#	171869
#	192310
#	210493
#	228426
#	250828
#	268287
#	287459
#	304622
#	321967
#
# Disc length: 4581
#
# Revision: 1
# Processed by: cddbd v1.5.1PL2 Copyright (c) Steve Scherf et al.
# Submitted via: kTunes Pro (development) 1.0patch41
#
DISCID=f711e312
DTITLE=Various Artist - PHU0512
DYEAR=2005
DGENRE=R&B
TTITLE0=Mario - Juvenile - Boom
TTITLE1=Twista - Trey Songz - Girl Tonight
TTITLE2=Trina - Kelly Rowland - Here We Go
TTITLE3=Dem Franchize Boyz - Oh, I Think Dey Like Me
TTITLE4=Rihanna - If It's Lovin' That You Want
TTITLE5=Busta Rhymes - ODB - Where's Your Money
TTITLE6=Sean Paul - We Be Burnin'
TTITLE7=Missy Elliott - Teary Eyed
TTITLE8=Omarion - I'm Tryna
TTITLE9=Mario - Juvenile - Boom (multiplex)
TTITLE10=Twista - Trey Songz - Girl Tonight (multiplex)
TTITLE11=Trina - Kelly Rowland - Here We Go (multiplex)
TTITLE12=Dem Franchize Boyz - Oh, I Think Dey Like Me (multiplex)
TTITLE13=Rihanna - If It's Lovin' That you Want (multiplex)
TTITLE14=Busta Rhymes - ODB - Where's Your Money (multiplex)
TTITLE15=Sean Paul - We Be Burnin' (multiplex)
TTITLE16=Missy Elliott - Teary Eyed (multiplex)
TTITLE17=Omarion - I'm Tryna (multiplex)
EXTD=
EXTT0=
EXTT1=
EXTT2=
EXTT3=
EXTT4=
EXTT5=
EXTT6=
EXTT7=
EXTT8=
EXTT9=
EXTT10=
EXTT11=
EXTT12=
EXTT13=
EXTT14=
EXTT15=
EXTT16=
EXTT17=
PLAYORDER=
